<svg version="1.1" xmlns="http://www.w3.org/2000/svg" xmlns:xlink="http://www.w3.org/1999/xlink" width="403.35515" height="121.90795" viewBox="0,0,403.35515,121.90795"><g transform="translate(-154.63296,-114.40903)"><g data-paper-data="{&quot;isPaintingLayer&quot;:true}" fill-rule="nonzero" stroke="none" stroke-linecap="butt" stroke-linejoin="miter" stroke-miterlimit="10" stroke-dasharray="" stroke-dashoffset="0" style="mix-blend-mode: normal"><path d="M154.63296,215.50001v-71h179.05386v71z" fill="#ffffff" stroke-width="0"/><text transform="translate(166.27951,190.14288) scale(0.84524,0.84524)" font-size="40" xml:space="preserve" fill="#000000" fill-rule="nonzero" stroke="none" stroke-width="1" stroke-linecap="butt" stroke-linejoin="miter" stroke-miterlimit="10" stroke-dasharray="" stroke-dashoffset="0" font-family="Sans Serif" font-weight="normal" text-anchor="start" style="mix-blend-mode: normal"><tspan x="0" dy="0">Death Tig</tspan></text><path d="M341.53997,127.70285c0,-1.24442 1.00881,-2.25322 2.25322,-2.25322c1.24442,0 2.25322,1.00881 2.25322,2.25322c0,1.24442 -1.00881,2.25322 -2.25322,2.25322c-1.24442,0 -2.25322,-1.0088 -2.25322,-2.25322z" fill="#000000" stroke-width="0.5"/><text transform="translate(351.9048,134.01187) scale(0.45064,0.45064)" font-size="40" xml:space="preserve" fill="#000000" fill-rule="nonzero" stroke="none" stroke-width="1" stroke-linecap="butt" stroke-linejoin="miter" stroke-miterlimit="10" stroke-dasharray="" stroke-dashoffset="0" font-family="Sans Serif" font-weight="normal" text-anchor="start" style="mix-blend-mode: normal"><tspan x="0" dy="0">Gamemode from the</tspan><tspan x="0" dy="46.15px">original shooty doot</tspan><tspan x="0" dy="46.15px"> </tspan></text><path d="M341.53997,182.78089c0,-1.24442 1.00881,-2.25322 2.25322,-2.25322c1.24442,0 2.25322,1.00881 2.25322,2.25322c0,1.24442 -1.00881,2.25322 -2.25322,2.25322c-1.24442,0 -2.25322,-1.00881 -2.25322,-2.25322z" fill="#000000" stroke-width="0.5"/><text transform="translate(351.9048,189.08991) scale(0.45064,0.45064)" font-size="40" xml:space="preserve" fill="#000000" fill-rule="nonzero" stroke="none" stroke-width="1" stroke-linecap="butt" stroke-linejoin="miter" stroke-miterlimit="10" stroke-dasharray="" stroke-dashoffset="0" font-family="Sans Serif" font-weight="normal" text-anchor="start" style="mix-blend-mode: normal"><tspan x="0" dy="0">Red chases blue with</tspan><tspan x="0" dy="46.15px">thier knife, blue has to</tspan><tspan x="0" dy="46.15px">run away. Blue is faster!</tspan></text></g></g></svg>