<svg version="1.1" xmlns="http://www.w3.org/2000/svg" xmlns:xlink="http://www.w3.org/1999/xlink" width="71.05763" height="50.49156" viewBox="0,0,71.05763,50.49156"><g transform="translate(-204.47119,-154.75422)"><g data-paper-data="{&quot;isPaintingLayer&quot;:true}" fill-rule="nonzero" stroke-linejoin="miter" stroke-miterlimit="10" stroke-dasharray="" stroke-dashoffset="0" style="mix-blend-mode: normal"><path d="M205.05031,204.66667v-49.33333h69.8994v49.33333z" fill="#ffffff" stroke="#ffffff" stroke-width="1.15823" stroke-linecap="butt"/><path d="M238.43863,194.15472c1.9287,1.9268 1.9287,5.054 0,6.9823c-1.9278,1.9296 -5.0541,1.9296 -6.9837,0c-7.6132,-7.6133 -17.5745,-17.575 -17.5745,-17.575c-1.9282,-1.9278 -1.9282,-5.0545 0,-6.9832c0,0 11.543,-11.5443 17.7163,-17.7167c1.9282,-1.9287 5.0541,-1.9282 6.9837,0c1.9286,1.9282 1.9286,5.0545 0,6.9832c-7.6133,7.6128 -9.2636,9.2829 -9.2636,9.2829c0,0 24.5814,0.0102 33.3107,0.0102c2.7274,0 4.9382,2.2104 4.9382,4.9378c0,2.7269 -2.2108,4.9382 -4.9382,4.9382c-10.412,0 -33.3375,-0.0097 -33.3375,-0.0097c0,0 2.9752,2.9748 9.1486,9.15z" fill="#000000" stroke="#ffffff" stroke-width="0" stroke-linecap="butt"/><path d="M235.23363,163.03494v33.93013" fill="none" stroke="#000000" stroke-width="10" stroke-linecap="round"/><path d="M223.77075,186.9476c0,-2.28208 1.52886,-4.20708 3.6182,-4.80661c-2.25296,-0.48567 -3.94134,-2.48952 -3.94134,-4.88771c0,-2.76143 2.23857,-5 5,-5c2.76143,0 5,2.23857 5,5c0,2.28208 -1.52886,4.20708 -3.61821,4.80662c2.25296,0.48567 3.94135,2.48951 3.94135,4.8877c0,2.76143 -2.23857,5 -5,5c-2.76143,0 -5,-2.23857 -5,-5z" fill="#000000" stroke="none" stroke-width="0.5" stroke-linecap="butt"/><path d="M262.62009,179.8477h-32.47598" fill="none" stroke="#000000" stroke-width="17.5" stroke-linecap="round"/></g></g></svg>