<svg version="1.1" xmlns="http://www.w3.org/2000/svg" xmlns:xlink="http://www.w3.org/1999/xlink" width="12.79518" height="8.25144" viewBox="0,0,12.79518,8.25144"><g transform="translate(-233.60241,-170.27428)"><g data-paper-data="{&quot;isPaintingLayer&quot;:true}" fill-rule="nonzero" stroke="none" stroke-width="0.5" stroke-linecap="butt" stroke-linejoin="miter" stroke-miterlimit="10" stroke-dasharray="" stroke-dashoffset="0" style="mix-blend-mode: normal"><path d="M243.93213,177.99111c0.08241,0.23603 -0.15362,0.31843 -0.15362,0.31843l-0.24532,0.08299c-1.32678,0.2607 -2.56016,0.08742 -3.90004,-0.08466c-1.69614,-0.21784 -4.15662,-2.1865 -5.73095,-1.858c0,0 -0.24531,0.0482 -0.29351,-0.19711c-0.0482,-0.24531 0.1971,-0.29351 0.1971,-0.29351c0.04404,-0.00824 0.08843,-0.01505 0.13315,-0.02048c0.27621,-1.98375 1.34015,-3.40027 2.20681,-5.11756c1.56411,-1.25791 4.83651,-0.05742 6.4523,0.72206c0.71138,0.35349 3.67682,0.65129 3.79442,1.57592c0.09107,0.71606 -1.06147,1.88297 -1.33379,2.48685c-0.3664,0.75951 -0.7328,1.51902 -1.0992,2.27854l-0.044,0.06692c0.00606,0.01209 0.01164,0.02526 0.01665,0.03961zM236.08875,176.3929c0.00357,-0.00196 0.00716,-0.0038 0.01077,-0.00554c0.00749,-0.04271 0.02168,-0.07214 0.02168,-0.07214l0.1374,-0.28482c0.20575,-0.42649 0.3748,-0.82079 0.6853,-1.18195c0,0 0.16404,-0.18865 0.35269,-0.02461c0.18866,0.16404 0.02461,0.35269 0.02461,0.35269c-0.28219,0.32013 -0.42744,0.68797 -0.61227,1.07112l-0.04738,0.09822c1.04781,-0.19557 1.57101,-0.77267 0.75906,-1.8239c0,0 -0.15282,-0.19785 0.04503,-0.35067c0.19786,-0.15282 0.35067,0.04503 0.35067,0.04503c0.98656,1.27731 0.40169,2.23793 -0.85278,2.57053c0.94522,0.44502 1.88992,0.91677 2.73329,1.02508c1.26405,0.16234 2.41992,0.33373 3.66651,0.10396c0.01284,-0.05508 0.03876,-0.09368 0.03876,-0.09368l0.10704,-0.15488c0.3664,-0.75951 0.73281,-1.51903 1.09921,-2.27855c0.33708,-0.66791 1.17044,-1.47408 1.28683,-2.21765c0.03003,-0.19185 -3.18302,-1.02137 -3.51438,-1.17754c-1.37717,-0.66437 -4.46838,-1.85823 -5.84668,-0.8575c-0.74411,1.65008 -1.80445,2.92786 -2.0888,4.79516c0.52167,0.04217 1.07692,0.22488 1.64341,0.46162z" fill="#000000"/><path d="M234.39696,175.9439c0.28435,-1.8673 1.35595,-3.19121 2.10007,-4.8413c1.3783,-1.00073 4.54006,0.18947 5.91723,0.85384c0.33136,0.15616 3.55979,1.01206 3.52975,1.20391c-0.1164,0.74357 -0.94971,1.57108 -1.28679,2.239c-0.3664,0.75951 -0.74584,1.54334 -1.11224,2.30286l-0.10845,0.15627c0,0 -0.02664,0.03927 -0.03948,0.09435c-1.2466,0.22977 -2.44332,0.07094 -3.70737,-0.0914c-0.84338,-0.10832 -1.82129,-0.60006 -2.76651,-1.04508c1.25447,-0.3326 1.82991,-1.32728 0.84336,-2.60459c0,0 -0.05326,-0.18848 -0.25111,-0.03566c-0.19786,0.15282 -0.04483,0.34428 -0.04483,0.34428c0.81195,1.05123 0.28273,1.60608 -0.76508,1.80165l-0.0409,-0.05124c0.18483,-0.38315 0.32601,-0.76156 0.6082,-1.08169c0,0 0.1629,-0.19452 -0.02576,-0.35856c-0.18866,-0.16404 -0.25355,0.01157 -0.25355,0.01157c-0.31051,0.36116 -0.48283,0.74298 -0.68858,1.16946l-0.13834,0.28265c0,0 -0.01446,0.02886 -0.02195,0.07157c-0.0036,0.00174 -0.09742,0.04673 -0.10099,0.04869c-0.56649,-0.23674 -1.12501,-0.4284 -1.64668,-0.47057z" data-paper-data="{&quot;noHover&quot;:false,&quot;origItem&quot;:[&quot;Path&quot;,{&quot;applyMatrix&quot;:true,&quot;segments&quot;:[[[472.21491,352.69386],[-1.13298,-0.47348],[0.00714,-0.00392]],[[472.23644,352.68277],[-0.00721,0.00348],[0.01498,-0.08542]],[472.27981,352.5385],[[472.55461,351.96886],[0,0],[0.41149,-0.85297]],[[473.92522,349.60496],[-0.62101,0.72233],[0,0]],[[474.63061,349.55574],[-0.37731,-0.32809],[0.37731,0.32809]],[[474.67983,350.26113],[0,0],[-0.56438,0.64026]],[[473.45529,352.40336],[0.36967,-0.76629],[0,0]],[[473.36052,352.5998],[0,0],[2.09563,-0.39115]],[[474.87864,348.95199],[1.62389,2.10247],[0,0]],[[474.96871,348.25065],[-0.39571,0.30564],[0.39571,-0.30564]],[[475.67006,348.34072],[0,0],[1.97311,2.55461]],[[473.9645,353.48178],[2.50893,-0.6652],[1.89045,0.89005]],[[479.43109,355.53195],[-1.68675,-0.21663],[2.52809,0.32468]],[[486.76411,355.73986],[-2.49319,0.45954],[0.02568,-0.11017]],[486.84163,355.5525],[[487.05571,355.24274],[0,0],[0.7328,-1.51903]],[[489.25412,350.68565],[-0.7328,1.51903],[0.67416,-1.33583]],[[491.82779,346.25035],[-0.23279,1.48714],[0.06006,-0.38369]],[[484.79903,343.89528],[0.66272,0.31233],[-2.75434,-1.32874]],[[473.10568,342.18029],[2.7566,-2.00147],[-1.48822,3.30017]],[[468.92809,351.77062],[0.56869,-3.7346],[1.04333,0.08433]]],&quot;closed&quot;:true}]}" fill="#ffea00"/><path d="M239.85242,175.8155c0.24796,0.03185 0.21612,0.27981 0.21612,0.27981l-0.10788,0.2652c-0.7409,0.46075 -1.5307,1.50298 -1.29345,-0.34435c0,0 0.03185,-0.24796 0.27981,-0.21612c0.24796,0.03185 0.21612,0.27981 0.21612,0.27981c-0.15419,1.20063 -0.0695,0.36542 0.49188,-0.11506l-0.0824,0.06682c0,0 0.03185,-0.24796 0.27981,-0.21612z" fill="#000000"/><path d="M242.63691,177.68543c-0.24796,-0.03185 -0.21612,-0.27981 -0.21612,-0.27981l0.03822,-0.29756c0.06065,-0.47226 -0.05845,-0.33065 -0.4022,-0.11586l0.03498,0.04529l-0.22385,0.17289c-0.05063,0.03911 -0.11619,0.05891 -0.18466,0.05011c-0.13694,-0.01759 -0.23371,-0.14287 -0.21612,-0.27981l0.03822,-0.29756c0.07281,-0.51612 -0.32658,-0.11351 -0.78132,0.20304l0.06558,0.08491l-0.22385,0.1729c-0.05063,0.03911 -0.11618,0.0589 -0.18466,0.05011c-0.13694,-0.01759 -0.23371,-0.14287 -0.21612,-0.27981c0.00378,-0.02945 0.01254,-0.05704 0.02533,-0.08204l0.12151,-0.25187c0.02114,-0.18215 0.04363,-0.36414 0.06699,-0.54602c0,0 0.03185,-0.24796 0.27981,-0.21612c0.24796,0.03185 0.21612,0.27981 0.21612,0.27981c-0.00652,0.05074 -0.0131,0.10147 -0.01975,0.15219c0.42997,-0.39076 1.17488,-0.68353 1.16305,0.25636c0.35104,-0.25375 1.06861,-0.36058 0.93687,0.66518l-0.03821,0.29756c0,0 -0.03185,0.24796 -0.27981,0.21612z" fill="#000000"/><path d="M236.65811,173.37589c-0.09494,-0.0458 -0.47469,-0.229 -0.56964,-0.2748c0,0 -0.22516,-0.10863 -0.11654,-0.3338c0.10862,-0.22517 0.33379,-0.11655 0.33379,-0.11655c0.09494,0.0458 0.18988,0.0916 0.28482,0.1374l0.14775,0.07128c0.05936,-0.23056 0.24169,-0.49746 0.4157,-0.76072c-0.03161,-0.03011 -0.05765,-0.07416 -0.07023,-0.13824c-0.0482,-0.24531 0.19711,-0.29351 0.19711,-0.29351c0.04824,-0.00903 0.09692,-0.01678 0.14587,-0.02305c0.00007,-0.00014 0.00014,-0.00028 0.0002,-0.00042c0,0 0.10862,-0.22517 0.33379,-0.11655c0.06098,0.02942 0.09747,0.06737 0.11828,0.10709c0.01658,0.00162 0.03313,0.00349 0.04963,0.00561l0.27038,-0.05642c0,0 0.24531,-0.0482 0.29351,0.19711c0.0482,0.24531 -0.1971,0.29351 -0.1971,0.29351l-0.35022,0.06552c-0.07614,-0.00978 -0.1534,-0.01499 -0.23071,-0.01516c-0.31813,0.43628 -0.77502,0.80362 -0.22162,0.86772l0.29317,0.16508c0,0 0.20754,0.13938 0.06816,0.34692c-0.13938,0.20755 -0.34692,0.06816 -0.34692,0.06816l-0.0781,-0.08424c-0.22337,-0.03084 -0.38462,-0.08037 -0.49649,-0.14471c-0.11526,0.1096 -0.27459,0.03275 -0.27459,0.03275z" fill="#000000"/><path d="M242.97444,174.89285c-0.24531,0.0482 -0.29351,-0.19711 -0.29351,-0.19711l-0.06552,-0.35021c0.08166,-0.41939 -0.29184,-0.22041 -0.64148,-0.00554l0.05231,0.06773l-0.22385,0.17289c-0.05063,0.03911 -0.11619,0.05891 -0.18466,0.05011c-0.13694,-0.01759 -0.23371,-0.14287 -0.21612,-0.27981l0.03822,-0.29755c0.00008,-0.00058 0.00016,-0.00116 0.00025,-0.00174c-0.14423,0.10525 -0.29526,0.20566 -0.45273,0.29051c-0.00966,0.02485 -0.01972,0.05014 -0.03035,0.07587l-0.04424,-0.02287l0.05439,0.10971l-0.31997,0.15864c-0.04343,0.02233 -0.09385,0.03219 -0.14596,0.0255c-0.13459,-0.01728 -0.23036,-0.13859 -0.21692,-0.27276c-0.03869,0.0208 -0.08902,0.03183 -0.15435,0.02344c-0.24796,-0.03185 -0.21612,-0.27981 -0.21612,-0.27981l0.04652,-0.33687c0.01732,-0.03591 0.03379,-0.07073 0.04944,-0.1045c-0.07555,-0.0097 -0.15819,-0.02032 -0.22926,-0.02945c-0.01612,0.07811 -0.02959,0.16058 -0.0396,0.24697c0,0 -0.03185,0.24796 -0.27981,0.21612c-0.24796,-0.03185 -0.21612,-0.27981 -0.21612,-0.27981c0.25879,-1.87403 2.12261,-1.83057 1.19466,0.09298l-0.02951,0.25476l0.15243,-0.11774c0.13813,-0.38066 0.23067,-0.61462 0.55288,-0.87376c0,0 0.19785,-0.15282 0.35067,0.04504c0.00754,0.00977 0.01424,0.01943 0.02014,0.02896c0.05295,-0.05407 0.12975,-0.08355 0.2106,-0.07316c0.11155,0.01433 0.19643,0.1001 0.21457,0.20542l0.05986,0.30464l-0.05814,0.01142c0.00596,0.02758 0.01112,0.05524 0.01538,0.08294c0.37742,-0.31484 1.26603,-0.45612 1.18658,0.49516l0.05642,0.27038c0,0 0.0482,0.24531 -0.19711,0.29351zM239.98525,173.2112l0.21802,0.028c0.18338,-0.56685 -0.06754,-0.49196 -0.2706,-0.03475c0.01753,0.00225 0.03505,0.0045 0.05258,0.00675z" fill="#000000"/></g></g></svg>