<svg version="1.1" xmlns="http://www.w3.org/2000/svg" xmlns:xlink="http://www.w3.org/1999/xlink" width="19.64686" height="18.71679" viewBox="0,0,19.64686,18.71679"><g transform="translate(-229.31541,-170.69932)"><g data-paper-data="{&quot;isPaintingLayer&quot;:true}" fill-rule="nonzero" stroke="none" stroke-width="0.5" stroke-linecap="butt" stroke-linejoin="miter" stroke-miterlimit="10" stroke-dasharray="" stroke-dashoffset="0" style="mix-blend-mode: normal"><path d="M235.72608,180.26479c0.13453,-0.01003 1.59769,-0.14028 2.06258,0.07332l0.07898,-0.03337l0.02435,-0.0038l0.02077,-0.01326l0.0711,-0.0238l0.00778,-0.00468l0.06619,-0.02024l0.05835,-0.03723l0.03094,-0.01036l0.00922,-0.00655l0.11541,-0.08679l0.01563,-0.0066l0.07084,-0.07103l0.10027,-0.06033l0.11551,-0.09078l0.00069,-0.00577l0.01443,-0.01085l0.01137,-0.01331l0.11766,-0.08373l0.11542,-0.08679l0.01563,-0.00661l0.00121,-0.00121l0.04704,-0.05503l0.08231,-0.05858l0.00172,-0.00172l0.10912,-0.12763l0.07909,-0.19486l0.05957,-0.0816l0.03912,-0.0785l0.03678,-0.09061l0.01586,-0.06381l0.03941,-0.07412l0.02198,-0.08102l0.02037,-0.03642l0.00836,-0.03365l-0.00246,-0.03149l-0.00437,-0.00555l0.00253,-0.01787l-0.00137,-0.01746l0.024,-0.1424l0.02023,-0.14299l0.00293,-0.00722l-0.01975,-0.25245l-0.00527,-0.01726l0.00247,-0.00442l-0.04425,-0.13218l-0.00137,-0.01746l-0.00528,-0.01726l0.00345,-0.00616l-0.03717,-0.47519l-0.00437,-0.00555l0.00253,-0.01788l-0.00136,-0.01746l0.01495,-0.08872l-0.01638,-0.04892l-0.05787,-0.12921l0.00484,-0.01192l-0.00563,-0.00749l-0.18212,-0.431l-0.02579,-0.0328l-0.03431,-0.07662l-0.05045,-0.06709l-0.01022,-0.02418l-0.02578,-0.03281l-0.01623,-0.03624l-0.02812,-0.02805l-0.02008,-0.03337l-0.05361,-0.06822l-0.01192,-0.02661l-0.01764,-0.01508l-0.01923,-0.02702l-0.07961,-0.0794l-0.01899,-0.00771l-0.00952,0.00141l-0.12847,-0.09966l-0.04958,-0.03619l-0.12017,-0.0639l-0.12883,-0.0642l-0.04715,-0.01172l-0.11816,-0.01991l-0.02258,-0.00986l-0.02465,0.00003l-0.10715,-0.02664l-0.06111,-0.0325l-0.06759,-0.01493l-0.09851,-0.0491l-0.1917,-0.0323l-0.02258,-0.00987l-0.02464,0.00003l-0.2143,-0.05328l-0.03994,-0.02123l-0.04479,-0.00634l-0.01623,-0.00659l-0.04404,-0.00742l-0.0621,0.00785l-0.17678,-0.0212l-0.04957,-0.0189l-1.0156,0.07944l-0.10947,0.04626l-0.09982,0.01558l-0.0958,0.03207l-0.06962,0.00545l-0.00911,0.00304l-0.01457,0.00653l-0.00909,0.01925l-0.13425,0.04495l-0.03364,0.01506l-0.00075,0.00046l-0.00082,0.00024l-0.06227,0.0279l-0.01632,0.01227l-0.06056,0.0256l-0.02862,0.01722l-0.04326,0.01323l-0.03616,0.02719l-0.01613,0.00682l-0.0177,0.01259l-0.02051,0.04346l-0.07658,0.02563l-0.06579,0.04682l-0.03995,-0.00761l-0.00743,0.00559l-0.07473,0.10237l-0.0246,0.0033l-0.01059,0.02244l-0.11877,0.03976l-0.01766,0.01388l-0.07662,0.03431l-0.06709,0.05045l-0.01562,0.0066l-0.07084,0.07102l-0.13379,0.08052l-0.04326,0.01323l-0.03615,0.02718l-0.10171,0.04298l-0.01171,0.00183l-0.08425,0.09855l-0.05101,0.03629l-0.03836,0.04946l-0.05005,0.03933l-0.03869,0.04525l-0.01497,0.02051l-0.00572,0.04771l-0.06454,0.04854l-0.04762,0.06522l-0.00868,0.00116l-0.01317,0.02477l-0.00633,0.04479l-0.00293,0.00721l0.06216,0.79469l0.00328,0.00776l0.01558,0.09982l0.03208,0.0958l0.01383,0.1768l0.00328,0.00776l0.00612,0.03924l0.01975,0.03446l0.04843,0.17133l0.00154,0.05045l0.03996,0.06642l0.00638,0.00302l0.00573,0.01711l0.00903,0.01501l0.04223,0.1381l0.00375,0.01121l0.02302,0.05446l0.00492,0.00232l0.00573,0.01712l0.00903,0.01501l0.04223,0.1381l0.04585,0.13694l0.00012,0.00157l0.08116,0.10792l0.00682,0.01613l0.01047,0.01471l-0.00132,0.00693l0.00963,0.0228l0.01017,0.01689l0.05085,0.07145l0.06673,0.06656l0.13325,0.04157l0.05613,0.03422l0.06345,0.01721l0.07304,0.04085l0.06119,0.01521l0.07412,0.03941l0.08101,0.02199l0.10988,0.06145l0.04559,0.0429l0.05603,0.02792l0.05502,0.04704l0.00197,0.00143l0.09042,0.04506l0.2252,0.19252l0.0069,0.0097c0.13982,0.05425 0.26889,0.16881 0.40975,0.15832zM243.81561,180.3675c0.00552,-0.00043 0.01102,-0.00079 0.01651,-0.00108l0.01821,-0.00556l0.00846,0.00473c0.16909,-0.00173 0.32516,0.06432 0.44019,0.17424l0.02305,-0.0018l0.00776,-0.00328l0.09983,-0.01558l0.0958,-0.03207l0.16594,-0.01298l0.02893,-0.01847l0.0711,-0.0238l0.00778,-0.00468l0.04326,-0.01323l0.03616,-0.02719l0.06056,-0.02559l0.02863,-0.01723l0.04326,-0.01323l0.03616,-0.02719l0.10171,-0.04298l0.08133,-0.01269l0.01902,-0.00582l0.03616,-0.02719l0.15979,-0.06752l0.0658,-0.05171l0.00724,-0.00324l0.01255,-0.01258l0.07345,-0.10062l0.02568,-0.00345l0.06608,-0.07729l0.00143,-0.00196l0.04507,-0.09042l0.0957,-0.11195l0.04675,-0.10701l-0.0011,-0.04897l0.04003,-0.04013l0.02269,-0.05194l0.02963,-0.01089l0.03309,-0.08152l0.03025,-0.04145l-0.0007,-0.03135l0.00639,-0.00641l0.02186,-0.08791l0.01253,-0.02358l0.01592,-0.09449l-0.01021,-0.13056l-0.00402,-0.00667l-0.04223,-0.13809l-0.04585,-0.13694l-0.00136,-0.01746l-0.00527,-0.01726l0.00344,-0.00616l-0.01246,-0.1593l-0.00402,-0.00667l-0.04223,-0.1381l-0.04014,-0.11992l-0.00903,-0.01501l-0.04223,-0.1381l-0.04584,-0.13694l-0.00022,-0.00275l-0.02887,-0.06833l-0.01722,-0.02863l-0.02024,-0.06619l-0.03724,-0.05835l-0.03495,-0.1044l-0.00408,-0.0064l-0.06724,-0.06707l-0.04026,-0.06689l-0.01011,-0.03304l-0.00734,-0.01032l0.00161,-0.00843l-0.0044,-0.0144l-0.03724,-0.05835l-0.00654,-0.01955l-0.05675,-0.0566l-0.15396,-0.25585l-0.0106,-0.0149l-0.02862,-0.00482l-0.02703,-0.03974l-0.11097,-0.05531l-0.10282,-0.08791l-0.13128,-0.07343l-0.28408,-0.1153l-0.06381,-0.01587l-0.03994,-0.02123l-0.04479,-0.00634l-0.03096,-0.01256l-0.06381,-0.01586l-0.03994,-0.02124l-0.04479,-0.00634l-0.08076,-0.03278l-0.07393,-0.01246l-0.02258,-0.00986l-0.02465,0.00003l-0.00817,-0.00203l-0.00275,0.00021l-0.13746,-0.02316l-0.00398,0.00313l-0.01788,-0.00253l-0.01746,0.00137l-0.1424,-0.02399l-0.14298,-0.02024l-0.01623,-0.00659l-0.0178,-0.00299l-0.00306,-0.0045l-0.05767,-0.01434l-0.03994,-0.02123l-0.04479,-0.00634l-0.0524,-0.02127l-0.01095,-0.00185l-0.10103,0.00013l-0.10715,-0.02664l-0.00438,-0.00233l-0.04136,0.00324l-0.07629,-0.01286l-0.07713,0.00603l-0.06567,-0.01107l-0.23007,0.018l-0.00555,0.00436l-0.01788,-0.00253l-0.01746,0.00137l-0.1424,-0.02399l-0.14299,-0.02024l-0.00721,-0.00293l-0.51622,0.04038l-0.10947,0.04626l-0.09982,0.01559l-0.09581,0.03207l-0.06211,0.00486l-0.06314,0.02114l-0.07714,0.00603l-0.07336,0.02456l-0.02525,0.00197l-0.06727,0.04787l-0.07008,0.07026l-0.01661,0.03803l-0.00211,0.0149l0.0029,0.00808l-0.00565,0.01133l-0.00484,0.03421l-0.02936,0.07234l-0.05599,0.07671l-0.00691,0.01582l-0.00258,0.00095l-0.03321,0.06662l-0.05358,0.13199l-0.05956,0.0816l-0.04506,0.09043l-0.01508,0.01764l-0.00763,0.02814l-0.06074,0.10861l0.04507,0.57616l0.00528,0.01727l-0.00248,0.00442l0.01505,0.04495l0.00406,0.00635l0.0457,0.13652l0.00603,0.07713l0.02456,0.07337l0.01089,0.13924l0.01716,0.05125l0.00802,0.01331l0.00639,0.00302l0.00573,0.01712l0.00903,0.01501l0.04223,0.13809l0.03056,0.0913l0.01605,0.02134l0.0532,0.12589l0.02578,0.03281l0.03431,0.07661l0.05045,0.06709l0.02559,0.06056l0.05748,0.09552l0.01323,0.04326l0.02175,0.02894l0.08008,0.05846l0.00345,0.02568l0.09733,0.08321l0.05858,0.08231l0.07153,0.07135l0.04026,0.0669l0.00175,0.00572l0.00784,0.01043l0.02459,0.01794l0.03552,0.00598l0.01396,0.02053l0.02481,-0.00057l0.11408,0.1138l0.03366,0.01882l0.04559,0.0429l0.05603,0.02792l0.07506,0.06418l0.02623,0.03686l0.03723,0.0257l0.00961,0.01092l0.00494,0.00262l0.04479,0.00635l0.03096,0.01256l0.17096,0.0425l0.01669,0.00887l0.01886,0.00109l0.16187,0.0505l0.17296,0.043l0.03179,0.00536l0.00204,-0.0016l0.01787,0.00253l0.01746,-0.00137l0.1424,0.024l0.14299,0.02023l0.01622,0.00659l0.0178,0.00299l0.00397,0.00584l0.05057,0.02053l0.04404,0.00742l0.06211,-0.00785l0.17677,0.0212l0.03711,0.01415l0.03972,-0.00005l0.1742,0.04331c0.04836,-0.01635 0.09951,-0.02703 0.15274,-0.03119zM229.84042,185.47031l-0.00319,-0.00889l0.0082,-0.01644c0.0112,-0.05104 0.02864,-0.09992 0.05156,-0.14574l0.01042,-0.06183l0.02248,-0.15887l-0.00136,-0.01746l0.02399,-0.1424l0.02024,-0.14298l0.00659,-0.01623l0.00299,-0.0178l0.00584,-0.00397l0.00329,-0.00809l-0.00556,-0.07107l0.04783,-0.28392l0.01731,-0.03962l0.00248,-0.04316l0.03882,-0.12441l0.00691,-0.05769l-0.00332,-0.04238l0.0042,-0.02493l-0.01098,-0.01825l0.03708,-0.13663l0.02352,-0.1396l0.01761,-0.01198l0.00662,-0.02441l0.00832,-0.01486l0.00583,-0.03461l0.02771,-0.06342l0.0097,-0.06853l0.02126,-0.0524l0.00484,-0.02871l0.00683,-0.11884l0.05051,-0.16186l0.02218,-0.08922l0.00887,-0.01669l0.00109,-0.01887l0.0342,-0.1096l-0.00043,-0.00119l0.00213,-0.00428l0.0201,-0.06442l0.06313,-0.10357l0.00517,-0.03068l0.00987,-0.02258l-0.00003,-0.02464l0.02665,-0.10716l0.0394,-0.07412l0.02199,-0.08102l0.00831,-0.01486l0.00583,-0.03461l0.02771,-0.06342l0.0097,-0.06853l0.11516,-0.28373l0.01118,-0.0932l0.03832,-0.1005l0.0232,-0.10502l0.04225,-0.08478l0.00218,-0.0182l-0.00262,-0.00498l0.00505,-0.01522l0.00363,-0.03029l0.04955,-0.12993l0.04381,-0.13198l0.01143,-0.01801l0.00514,-0.05891l0.00835,-0.02422l-0.00199,-0.02554l0.02392,-0.14196l0.00986,-0.02258l-0.00003,-0.02465l0.05327,-0.2143l0.02124,-0.03994l0.00634,-0.04479l0.03278,-0.08076l0.05781,-0.3431l0.04061,-0.3387l0.01415,-0.0371l-0.00005,-0.03972l0.02867,-0.11533l-0.01927,-0.24642l0.01678,-0.09963l-0.00013,-0.10103l0.04745,-0.19088l0.00706,-0.04187l-0.00758,-0.09691l0.00873,-0.0518l-0.00826,-0.05188l0.01395,-0.15976l-0.00683,-0.08739l0.01286,-0.07629l-0.00603,-0.07713l0.03498,-0.20763l-0.00485,-0.0621l0.01678,-0.09963l-0.00013,-0.10102l0.00203,-0.00817l-0.00021,-0.00276l0.02391,-0.14195l-0.04901,-0.62658l0.0104,-0.06173l-0.00784,-0.06211l0.03498,-0.29175l-0.01965,-0.25125l0.01039,-0.06173l-0.00784,-0.06211l0.01378,-0.11498l-0.03054,-0.39049l0.01286,-0.07629l-0.00603,-0.07714l0.01106,-0.06566l-0.00758,-0.09691l0.0104,-0.06172l-0.00784,-0.06211l0.01378,-0.11498l-0.0142,-0.18162l0.01285,-0.07629l-0.00603,-0.07713l0.01106,-0.06567l-0.03481,-0.44501l0.01678,-0.09963l-0.00013,-0.10103l0.00203,-0.00817l-0.00021,-0.00275l0.01678,-0.09963l-0.00013,-0.10103l0.00203,-0.00817l-0.00294,-0.03756l0.01678,-0.09962l-0.00013,-0.10103l0.0172,-0.06918l0.00913,-0.07613l-0.00604,-0.0772l0.01678,-0.09963l-0.00013,-0.10103l0.0172,-0.06918l0.01654,-0.13792l0.00546,-0.01431l-0.00119,-0.01528l0.01107,-0.06566l-0.02617,-0.33451l-0.00436,-0.00555l0.00253,-0.01787l-0.00136,-0.01746l0.02392,-0.14196l-0.01089,-0.13924l0.05381,-0.31941l0.14284,-0.09714l0.07375,-0.1562l0.30716,-0.10283l0.80062,-0.06262l0.07629,0.01286l0.07713,-0.00603l0.06567,0.01107l0.20135,-0.01575l0.06172,0.0104l0.06211,-0.00785l0.17678,0.0212l0.01431,0.00546l0.01528,-0.0012l0.06567,0.01106l0.20135,-0.01575l0.06173,0.0104l0.0621,-0.00785l0.17677,0.0212l0.01432,0.00546l0.01528,-0.00119l0.14196,0.02392l0.03961,0.0173l0.04316,0.00249l0.01912,0.00597l0.077,-0.01722l0.07629,0.00191l0.07441,-0.01691l0.33206,0.00718l0.85422,-0.03254l0.03193,0.0067l0.03209,-0.00588l0.20182,0.0129l0.19914,-0.01558l0.02742,0.00462l0.02704,-0.00651l0.7788,0.00676l0.28609,-0.02238l0.04461,0.00752l0.04449,-0.00815l0.22031,0.01408l0.56834,-0.01098l0.02055,0.00472l0.02067,-0.00416l0.26826,0.01243l0.40376,0.00205l0.46392,-0.00313l0.81309,-0.0636l0.0243,0.0041l0.0239,-0.00601l0.43111,-0.00055l1.46524,-0.11461l0.06315,-0.02114l0.07713,-0.00603l0.17349,-0.05808l0.1292,-0.05787l0.01973,0.00801l0.02398,-0.00803l1.22592,-0.09589l0.11144,-0.0315l0.06257,-0.0019l0.05936,-0.01988l1.74048,-0.13614l0.09963,0.01678l0.10103,-0.00013l0.10715,0.02664l0.10948,0.05821l0.04805,-0.00108l0.05718,0.05703l0.0713,0.03791l0.01307,0.04625l0.08778,0.08756l0.04026,0.06689l0.01323,0.04326l0.02719,0.03615l0.06857,0.16227l0.05748,0.09553l0.02024,0.06619l0.03723,0.05835l0.01114,0.03328l0.01053,0.01339l0.04396,0.09816l0.05786,0.09067l0.03804,0.11362l0.03358,0.07948l0.0038,0.02435l0.01325,0.02078l0.03804,0.11362l0.07656,0.18118l0.0038,0.02435l0.01326,0.02077l0.03804,0.11363l0.03358,0.07947l0.00612,0.03924l0.01975,0.03446l0.03273,0.1158l0.05769,0.11686l0.01233,0.05682l0.02891,0.05045l0.04843,0.17132l0.0019,0.06258l0.01988,0.05936l0.02782,0.35567l0.0315,0.11144l0.00191,0.06256l0.01987,0.05937l0.00758,0.09691l0.02114,0.06315l0.00603,0.07713l0.02456,0.07336l0.09257,1.18353l-0.00872,0.05179l0.00826,0.05188l-0.01395,0.15976l0.08307,1.06206l-0.00751,0.04461l0.00814,0.04449l-0.0129,0.20182l0.01286,0.16433l-0.00872,0.0518l0.00826,0.05187l-0.01784,0.20431l-0.01243,0.19452l0.02919,0.37318l-0.01978,0.11738l-0.00683,0.11883l-0.01996,0.06396l0.01235,0.15781l-0.01678,0.09963l0.00013,0.10103l-0.00203,0.00817l0.1772,2.26538l-0.00873,0.0518l0.00826,0.05187l-0.01395,0.15976l0.01794,0.22938l0.00328,0.00775l0.01558,0.09983l0.03207,0.09581l0.07284,0.93118l0.00402,0.00667l0.04223,0.1381l0.04584,0.13694l0.00136,0.01746l0.04692,0.15344l0.04584,0.13694l0.00022,0.00275l0.00328,0.00776l0.01558,0.09982l0.03207,0.09581l0.01303,0.16653l0.02114,0.06314l0.00603,0.07713l0.02456,0.07337l0.01089,0.13924l0.01421,0.04245l0.04682,0.06579l-0.00899,0.04721l0.03936,0.11758l0.01906,0.24366l0.0457,0.13652l0.00136,0.01746l0.00528,0.01727l-0.00345,0.00616l0.01335,0.17073l0.00328,0.00777l0.01558,0.09982l0.03207,0.0958l0.02745,0.35085l0.00328,0.00776l0.01558,0.09982l0.03207,0.09581l0.12819,1.6388l0.00328,0.00776l0.04995,0.32004l-0.07901,0.10354l0.00294,0.13022l-0.22875,0.22933l-0.06689,0.04026l-0.11857,0.03625l-0.03321,0.03474l-0.08076,0.0001l-0.07722,0.02362l-0.04194,-0.02346l-0.12399,0.00016l-0.06918,-0.0172l-0.13792,-0.01654l-0.07844,-0.02991l-0.08312,-0.01176l-0.1033,-0.04192l-0.02401,-0.00597l-0.00665,0.00238l-0.01615,-0.00805l-0.01699,-0.00423l-0.09267,-0.04927l-0.07441,0.00582l-0.14196,-0.02392l-0.02258,-0.00987l-0.02464,0.00003l-0.32146,-0.07993l-0.07412,-0.0394l-0.08102,-0.02199l-0.03641,-0.02036l-0.00205,-0.00051l-0.11816,-0.01991l-0.09857,-0.04306l-0.07433,-0.02017l-0.08863,0.00011l-0.06735,-0.01674l-0.00665,0.00238l-0.01616,-0.00805l-0.017,-0.00423l-0.1275,-0.06779l-0.03772,-0.01879l-0.08435,-0.02098l-0.00664,0.00238l-0.01616,-0.00805l-0.01699,-0.00423l-0.12751,-0.06779l-0.03771,-0.0188l-0.017,-0.00422l-0.07412,-0.0394l-0.08102,-0.02199l-0.09554,-0.05344l-0.0735,0.00009l-0.10716,-0.02664l-0.03994,-0.02123l-0.04479,-0.00634l-0.01447,-0.00588l-0.12749,-0.01805l-0.01623,-0.00659l-0.0178,-0.00299l-0.00397,-0.00584l-0.05256,-0.02133l-0.16694,-0.03388l-0.15151,-0.01817l-0.0944,-0.03599l-0.0991,-0.01969l-0.22205,-0.10484l-0.44487,-0.1508l-0.18894,-0.04698l-0.03994,-0.02124l-0.01783,-0.00252l-0.12247,0.0737l-0.06619,0.02024l-0.01695,0.01082l-0.09902,0.07047l-0.09645,0.08182l-0.06051,0.02988l-0.0039,0.00278l-0.00124,-0.00024l-0.06231,0.03075l-0.05452,0.03881l-0.00172,0.00171l-0.04704,0.05503l-0.08231,0.05858l-0.07135,0.07153l-0.0464,0.02793l-0.12625,0.14767l-0.10102,0.07189l-0.02051,0.04346l-0.07658,0.02563l-0.0658,0.04682l-0.03972,-0.00756l-0.08813,0.06926l-0.02308,0.01033l-0.00909,0.01926l-0.13425,0.04494l-0.08252,0.03696l-0.01877,0.01881l-0.06689,0.04026l-0.06619,0.02024l-0.05835,0.03723l-0.0711,0.02381l-0.40916,0.24621l-0.04326,0.01323l-0.03616,0.02719l-0.05439,0.02298l-0.08708,0.09256l-0.01186,0.02511l-0.01718,0.00576l-0.01242,0.0132l-0.02777,0.00025l-0.02021,0.00677l-0.02102,0.02879l-0.0246,0.00331l-0.01059,0.02245l-0.18143,0.06073l-0.10143,0.04286l-0.12251,0.01912l-0.03778,0.0297l-0.07996,-0.01132l-0.07979,0.01245l-0.03821,-0.02915l-0.12277,-0.01738l-0.14468,-0.05873l-0.0816,-0.05957l-0.05501,-0.02742l-0.04458,-0.00751l-0.14298,-0.02024l-0.01623,-0.00659l-0.0178,-0.003l-0.00307,-0.0045l-0.05767,-0.01434l-0.03498,-0.0186l-0.00421,0.00151l-0.01133,-0.00565l-0.0342,-0.00484l-0.07235,-0.02937l-0.04799,-0.03503l-0.02593,-0.00703l-0.1396,-0.02352l-0.01198,-0.01761l-0.02441,-0.00662l-0.01961,-0.01097l-0.06385,-0.01075l-0.02747,0.00406l-0.01432,-0.01111l-0.01787,-0.00301l-0.01562,-0.02296l-0.1045,-0.08106l-0.0656,-0.00929l-0.07234,-0.02937l-0.03208,-0.02341l-0.03833,-0.0104l-0.07572,-0.04235l-0.0445,-0.01806l-0.07393,-0.01246l-0.02258,-0.00986l-0.02465,0.00003l-0.10715,-0.02664l-0.07412,-0.0394l-0.08102,-0.02199l-0.07304,-0.04085l-0.06119,-0.01522l-0.03995,-0.02123l-0.04478,-0.00634l-0.37013,-0.15024l-0.07393,-0.01245l-0.06342,-0.02771l-0.06853,-0.0097l-0.14468,-0.05872l-0.0199,-0.01453l-0.02407,-0.00531l-0.13715,-0.06835l-0.0907,-0.0283l-0.07515,-0.01266l-0.18658,-0.01629l-0.04713,-0.01625l-0.04985,0.00007l-0.19287,-0.04796l-0.09105,0.00011l-0.10715,-0.02664l-0.03994,-0.02123l-0.04479,-0.00634l-0.00842,-0.00342l-0.07393,-0.01245l-0.06342,-0.02771l-0.06853,-0.0097l-0.08077,-0.03278l-0.07393,-0.01246l-0.06342,-0.02771l-0.06853,-0.0097l-0.21703,-0.08809l-0.0199,-0.01453l-0.02407,-0.00531l-0.16062,-0.08005l-0.17043,-0.06918l-0.15454,-0.04822l-0.04296,-0.02619l-0.00535,0.00421l-0.02662,0.01192l-0.01508,0.01764l-0.08232,0.05858l-0.07135,0.07153l-0.09157,0.0551l-0.07117,0.09751l-0.03108,0.00418l-0.03624,0.03633l-0.0669,0.04026l-0.04326,0.01323l-0.03616,0.02719l-0.06056,0.0256l-0.02863,0.01722l-0.04326,0.01323l-0.03615,0.02719l-0.01613,0.00682l-0.03433,0.02443l-0.10819,0.08137l-0.05847,0.08008l-0.03107,0.00418l-0.03624,0.03633l-0.10027,0.06034l-0.06822,0.05361l-0.03625,0.01623l-0.02804,0.02812l-0.33449,0.20128l-0.0255,0.0078l-0.02034,0.01725l-0.16861,0.08324l-0.06663,0.01445l-0.06022,0.03198l-0.11441,0.02839l-0.05282,0.03178l-0.06619,0.02024l-0.05835,0.03724l-0.11363,0.03804l-0.03833,0.0162l-0.09552,0.05748l-0.04326,0.01323l-0.03616,0.02719l-0.02418,0.01022l-0.0328,0.02578l-0.02307,0.01033l-0.00909,0.01926l-0.13425,0.04494l-0.1292,0.05787l-0.00035,-0.00015l-0.05115,0.03847l-0.06056,0.02559l-0.02863,0.01722l-0.04326,0.01323l-0.03616,0.02718l-0.06056,0.0256l-0.16242,0.09774l-0.04326,0.01323l-0.03616,0.02719l-0.06056,0.0256l-0.12728,0.07659l-0.00301,0.00638l-0.01712,0.00573l-0.01501,0.00903l0.14906,-0.49831l-0.04062,0.01367l-0.34412,0.19698l0.38949,-0.02426l-0.02863,0.01722l-0.06619,0.02024l-0.05835,0.03723l-0.11363,0.03805l-0.14004,0.05918l-0.02863,0.01722l-0.2065,0.06315l-0.0332,0.02609l-0.03564,-0.00504l-0.03442,0.01053l-0.03686,-0.02061l-0.21381,-0.03026l-0.07235,-0.02937l-0.26163,-0.19098l-0.023,-0.17121l-0.10674,-0.13581l-0.00084,0.19844l0.01503,-0.51498l-0.01307,0.29939l0.01989,-0.45282l-0.01486,0.31002l0.01882,-0.46652l-0.03029,0.37013l0.05321,-0.01787l-0.05204,-0.01746l0.02391,-0.14196c0,0 0.01783,-0.47926 0.01328,-0.53737c-0.00531,-0.06797 -0.21134,0.20514 -0.21134,0.20514l-0.02839,-0.09962l-0.07543,-0.10103l-0.12396,-0.10716l0.00233,-0.00438l-0.00004,-0.00047l-0.00436,-0.00555l0.00253,-0.01788l-0.00136,-0.01745l0.02392,-0.14196l-0.00498,-0.06355l-0.00436,-0.00555l0.00253,-0.01788l-0.00136,-0.01746l0.02392,-0.14195l-0.01361,-0.17405l0.05381,-0.31942l0.02052,-0.01395l-0.00056,-0.02482l0.02215,-0.0222l0.00704,-0.04969l0.00659,-0.01622l0.00299,-0.0178l0.00584,-0.00397l0.02053,-0.05058l0.00122,-0.00724l-0.01098,-0.01825l0.03707,-0.13663l0.02352,-0.1396l0.01761,-0.01198l0.00662,-0.02441l0.04085,-0.07304l0.01331,-0.05354l-0.01582,-0.04412l0.03602,-0.07228l0.01342,-0.07963l0.0367,-0.02496l0.00439,-0.02608l0.02771,-0.06342l0.0097,-0.06853l0.00439,-0.01081c-0.00016,-0.03796 0.00311,-0.07523 0.00951,-0.11154z" fill="#a89443"/><path d="M246.54521,183.57327c-0.15362,0.10932 -0.26294,-0.0443 -0.26294,-0.0443l-0.11804,-0.16588c-0.1049,-0.15912 -1.02405,-1.01406 -1.23281,-1.00365c-0.2194,0.01094 -0.61582,0.29017 -0.83986,0.37357c-0.41539,0.17512 -1.0552,0.84644 -1.51977,0.81899c-0.31361,-0.01853 -0.89935,-0.94929 -1.13925,-1.11742c-0.09458,-0.06629 -0.21119,0.09376 -0.315,0.14439c-0.48561,0.23683 -0.94427,0.4933 -1.44297,0.70082c-0.75611,0.53623 -1.21072,0.40878 -1.61214,-0.35754c-0.08877,-0.16946 -0.35449,-0.3496 -0.24705,-0.55751c0.04416,-0.08545 -0.12099,0.15071 -0.19278,0.21473c-0.12288,0.10958 -0.24203,0.22459 -0.37605,0.32023c-0.48848,0.34859 -1.1393,0.82292 -1.73593,0.83864c-0.33032,-0.39149 -0.69287,-1.09992 -1.08903,-1.38577c-0.12797,-0.09234 -0.25598,0.18464 -0.38582,0.27434c-0.40367,0.27886 -0.78732,0.71553 -0.99543,1.16387c0,0 -0.08049,0.1705 -0.25099,0.09c-0.1705,-0.0805 -0.09,-0.25099 -0.09,-0.25099c0.21947,-0.45841 1.22677,-1.88549 1.88189,-1.61885c0.1293,0.05263 0.22601,0.31684 0.30826,0.4222c0.263,0.33689 0.60604,0.55131 0.78078,0.96357c0.60453,-0.21265 1.21998,-0.68021 1.70384,-1.10088c0.13148,-0.11431 0.40672,-0.3499 0.60999,-0.26834c0.1652,0.06628 0.14934,0.32455 0.24634,0.47379c0.42292,0.65068 0.47244,1.01189 1.26032,0.44924c0.49285,-0.21083 1.59815,-1.05261 2.10142,-0.85758c0.27973,0.1084 0.65815,0.62718 0.88432,0.84484c0.07346,0.07069 0.08025,0.2652 0.18054,0.24688c0.39091,-0.07142 0.90777,-0.638 1.29533,-0.80211c0.26964,-0.10038 0.71176,-0.40986 0.99085,-0.40003c0.39625,0.01395 1.31131,0.87118 1.52826,1.16192l0.11804,0.16588c0,0 0.10932,0.15362 -0.0443,0.26294z" fill="#000000"/><path d="M239.54872,178.46577c0.1747,0.07091 0.10379,0.24561 0.10379,0.24561l-0.06468,0.15788c-0.12393,0.24866 -0.14633,0.56874 -0.30734,0.78524c-0.53322,0.71698 -1.35642,0.6336 -2.1144,0.8243c-0.41625,0.10204 -0.97735,0.24514 -1.3876,0.04784c-0.24434,-0.1175 -0.45999,-0.40383 -0.71666,-0.4925c-0.27065,-0.0935 -0.54354,-0.14273 -0.79911,-0.31134c-0.22496,-0.14841 -0.34399,-0.39434 -0.60881,-0.44736c0,0 -0.18298,-0.04549 -0.13748,-0.22847c0.04549,-0.18297 0.22847,-0.13748 0.22847,-0.13748c0.33972,0.09469 0.44654,0.3147 0.72601,0.4989c0.23427,0.1544 0.47435,0.17892 0.71735,0.2705c0.27779,0.10469 0.50498,0.37721 0.76286,0.5125c0.29795,0.15631 0.82558,-0.00346 1.12415,-0.07858c0.67477,-0.1654 1.40763,-0.07039 1.90056,-0.68052c0.13577,-0.16806 0.16906,-0.51967 0.2745,-0.73122l0.05277,-0.1315c0,0 0.07091,-0.1747 0.24562,-0.10379z" fill="#000000"/><path d="M246.30471,178.87697c0.00639,0.08168 -0.02549,0.13064 -0.06359,0.1599c-0.09178,0.38159 -0.18599,0.83237 -0.4509,1.13479c-0.42796,0.48858 -1.80957,0.4082 -2.42526,0.45459c-0.419,-0.04086 -0.66521,-0.29076 -1.04232,-0.42544c-0.28498,-0.10178 -0.6205,-0.08754 -0.87256,-0.27637c-0.48566,-0.36383 -0.7975,-1.25484 -0.94024,-1.82392c0,0 -0.0454,-0.183 0.13759,-0.2284c0.183,-0.0454 0.2284,0.13759 0.2284,0.13759c0.11916,0.48632 0.38969,1.29578 0.7995,1.61231c0.20391,0.1575 0.54291,0.13849 0.77769,0.22495c0.32111,0.11826 0.56033,0.37721 0.91365,0.40219c0.45096,-0.03678 1.8415,0.03841 2.13693,-0.32253c0.24302,-0.29691 0.30838,-0.72422 0.39535,-1.07773l0.20308,-0.1452c0,0 0.18797,-0.0147 0.20267,0.17327z" fill="#000000"/><g fill="#92813a"><path d="M248.09383,173.62732c0,0.04482 -0.00701,0.08826 -0.02016,0.12959c0.55485,1.01233 0.75813,2.84928 0.25272,3.5154c-0.00639,0.88733 -0.07209,1.79739 -0.2013,2.74975c-0.05406,0.39855 0.25512,2.32684 -0.35586,2.49821c-1.30815,0.36691 -0.86756,-1.68554 -0.86756,-2.25973c0,-2.9253 0.69128,-6.04179 -0.95467,-8.46546c-0.17514,-0.08697 -0.29263,-0.2474 -0.29263,-0.43091c0,-0.27614 0.26604,-0.5 0.59422,-0.5c0.07348,0 0.14385,0.01122 0.20881,0.03175c0.4746,-0.05553 0.96951,0.16675 1.10473,0.67878c0.15454,0.58514 0.28698,1.16148 0.39612,1.73473c0.08469,0.08641 0.13555,0.19716 0.13555,0.3179z"/><path d="M248.35926,187.95317c-0.57648,0.12127 -0.72061,-0.3638 -0.72061,-0.3638l-0.06932,-0.25782c-0.17908,-1.73856 -0.75647,-3.32881 -0.75872,-5.09072c0,0 0,-0.5 0.59422,-0.5c0.59422,0 0.59422,0.5 0.59422,0.5c-0.00202,1.72913 0.56175,3.28913 0.75385,5.00018l0.03872,0.10582c0,0 0.14412,0.48506 -0.43236,0.60634z"/></g><path d="M241.83327,172.39909h-0.10638c0,0 -0.18765,0 -0.33303,-0.11496c-0.14953,0.00138 -0.29901,0.00214 -0.44841,0.00214c-2.99945,0 -6.18918,0.6966 -9.13617,0.45249c0,0 -0.49795,-0.04527 -0.45268,-0.54321c0.04527,-0.49794 0.54322,-0.45268 0.54322,-0.45268c2.88455,0.29282 6.10026,-0.4566 9.04564,-0.4566c1.70552,0 3.40254,-0.08464 5.09091,-0.0909h0.09091c0,0 0.5,0 0.5,0.5c0,0.31411 -0.19733,0.43088 -0.34405,0.4743c0.84329,0.40213 1.45106,1.04617 1.8246,2.29128l0.15723,0.47152c0,0 0.15811,0.47434 -0.31623,0.63245c-0.47434,0.15812 -0.63245,-0.31623 -0.63245,-0.31623l-0.16191,-0.48593c-0.43079,-1.43596 -1.20398,-1.79773 -2.39412,-2.06338c-0.16302,0.04527 -0.31922,-0.00681 -0.31922,-0.00681c-0.4281,-0.14367 -0.8193,-0.22481 -1.2552,-0.27656c-0.45348,0.01773 -0.88921,-0.01749 -1.35264,-0.01693z" fill="#92813a"/><path d="M246.54369,171.32461l-0.14523,0.06848c-0.08772,0.02632 -0.17544,0.05263 -0.26316,0.07895c0,0 -0.19379,0.05814 -0.285,-0.10453c-0.4081,0.05319 -0.7847,0.11154 -0.90801,0.12118c-1.45718,0.11398 -2.9284,0.30315 -4.38968,0.27157c-0.89622,-0.02921 -1.78367,0.19675 -2.68104,0.1749c-0.83591,-0.02036 -1.67105,-0.06412 -2.51173,-0.04764c-0.12466,0.00244 -0.24705,-0.0067 -0.36802,-0.02293c-0.09862,0.02212 -0.19918,0.03642 -0.30123,0.04486c-0.13104,0.08557 -0.29151,0.02043 -0.29151,0.02043l-0.01963,-0.01078c-0.86728,-0.01139 -1.80589,-0.29195 -2.55912,0.2679v0c0,0 -0.01243,0.00919 -0.03382,0.02074c-0.02202,0.34765 0.08692,0.89381 0.09058,1.05581c0.0269,1.19165 -0.12874,2.31837 -0.04108,3.52245c-0.16544,1.16884 0.11714,2.40022 -0.15296,3.57286c-0.26155,1.13553 -0.73523,2.1925 -1.01807,3.30798c-0.26694,0.51563 -0.24967,1.0164 -0.38852,1.57178c-0.3303,1.32106 -0.40428,2.11067 0.10476,3.43399c0.40228,-0.30369 0.40675,0.01028 0.90326,-0.12707c0.60086,-0.56633 1.45013,-0.75983 2.14211,-1.19958c0.01939,-0.01232 0.03895,-0.02513 0.05868,-0.03834c0.02973,-0.02283 0.05939,-0.04528 0.08901,-0.06722l0.06809,-0.0422c0.23473,-0.16717 0.48859,-0.35364 0.7503,-0.41623c1.16199,-0.27789 2.6795,0.69725 3.73407,1.01766c0.35558,0.07942 0.72758,0.20784 1.05931,0.36021c0.22715,0.10433 0.47052,0.38796 0.75234,0.35604c1.11174,-0.12593 1.85779,-1.13512 2.79931,-1.59638c0.58709,-0.28762 1.2282,-0.14939 1.82243,0.00071c0.93264,0.42311 1.91432,0.61809 2.87848,0.9661c0.10215,0.03687 0.85387,0.23693 0.92952,0.08721c0.04658,-0.0922 -0.0519,-0.66408 -0.06087,-0.77771c-0.04178,-0.52906 -0.0935,-1.05734 -0.19304,-1.57851c-0.18628,-2.33785 -0.04258,-4.54805 0.03744,-6.90278c0.17204,-1.21545 0.22455,-2.75733 0.14191,-3.98177c-0.07599,-1.12533 -0.66651,-1.64346 -0.8764,-2.75164c-0.04309,-0.14298 -0.15049,-0.59432 -0.29472,-0.67238c-0.07142,-0.03866 -0.27172,-0.03971 -0.52458,-0.0217c-0.02914,0.02506 -0.0542,0.03758 -0.0542,0.03758zM235.04428,171.21223l0.36838,0.04496c0.82718,-0.02284 1.64939,0.02533 2.47189,0.04962c0.89747,0.0265 1.78686,-0.2041 2.6851,-0.1748c1.43886,0.03109 2.88873,-0.15765 4.32363,-0.26989c0.43553,-0.03407 2.12659,-0.29187 2.5213,-0.08011c0.34079,0.18283 0.50902,0.74235 0.61268,1.07781c0.16611,0.86327 0.58112,1.63289 0.82238,2.48105c0.1628,0.57234 0.05043,1.18295 -0.00028,1.7607c-0.07814,0.89018 0.05375,1.78209 -0.07155,2.66732c-0.07168,2.30665 -0.2164,4.47038 -0.04066,6.76483c0.12306,0.64433 0.20815,1.3212 0.22481,1.97854c0.00349,0.13797 -0.02324,0.74709 -0.07573,0.81707c-0.24245,0.3232 -0.93276,0.33965 -1.2848,0.27707c-1.04557,-0.18586 -2.2903,-0.65 -3.24871,-1.09292c-0.40981,-0.09995 -0.92425,-0.24935 -1.33222,-0.03271c-0.97794,0.51929 -1.84551,1.59233 -3.03975,1.66216c-0.68223,0.03989 -1.34618,-0.59599 -2.01431,-0.73561c-0.88177,-0.28053 -1.70962,-0.65201 -2.62118,-0.87922c-0.20879,-0.05204 -0.58688,-0.19295 -0.80817,-0.13447c-0.14146,0.03739 -0.27999,0.10417 -0.41667,0.18545c-0.04583,0.09212 -0.13039,0.14299 -0.13039,0.14299l-0.0421,0.02369c-0.76024,0.56105 -1.48737,1.07314 -2.35851,1.36846c-0.42964,0.34526 -0.50865,0.0309 -1.04203,0.19402l-0.30136,0.09214c-0.02344,0.0077 -0.04816,0.01275 -0.07386,0.01476c-0.17302,0.01353 -0.32426,-0.11576 -0.33779,-0.28878c-0.00287,-0.03672 0.00069,-0.07246 0.00974,-0.10611c-0.00151,-0.00318 -0.00225,-0.00493 -0.00225,-0.00493c-0.17941,-0.42456 -0.31731,-0.81241 -0.40689,-1.18646c-0.19254,-0.80399 -0.16182,-1.54424 0.15996,-2.44831c0.23256,-0.65338 0.15374,-1.31059 0.48231,-1.93633c0.26369,-1.09042 0.7345,-2.11791 0.99267,-3.22343c0.26391,-1.13012 -0.0218,-2.32607 0.13791,-3.45442c-0.10143,-1.1937 0.06755,-2.30831 0.04093,-3.48851c-0.01258,-0.55769 -0.24904,-1.39772 0.23443,-1.8343c0.37473,-0.33838 1.35255,-0.40821 1.82818,-0.44599c0.57303,-0.03996 1.09739,0.16981 1.64124,0.24027c0.02944,-0.00668 0.05992,-0.01512 0.09167,-0.02559z" fill="#000000"/><path d="M247.83464,182.75367c-0.01664,0.05962 -0.04967,0.11164 -0.09392,0.15542c-0.09171,0.10764 -0.22826,0.17592 -0.38076,0.17592c-0.04039,0 -0.07966,-0.00478 -0.11728,-0.01382c-0.24255,-0.01804 -0.45085,-0.16565 -0.38255,-0.47301c-0.00011,-0.00438 -0.00017,-0.00877 -0.00017,-0.01317c0,-0.06006 0.01059,-0.11764 0.03,-0.17099c0.50637,-2.75726 1.35646,-1.13559 0.94468,0.33965z" fill="#92813a"/></g></g></svg>