<svg version="1.1" xmlns="http://www.w3.org/2000/svg" xmlns:xlink="http://www.w3.org/1999/xlink" width="386.93541" height="141.64579" viewBox="0,0,386.93541,141.64579"><g transform="translate(-150.47307,-121.68065)"><g data-paper-data="{&quot;isPaintingLayer&quot;:true}" fill-rule="nonzero" stroke="none" stroke-linecap="butt" stroke-linejoin="miter" stroke-miterlimit="10" stroke-dasharray="" stroke-dashoffset="0" style="mix-blend-mode: normal"><path d="M150.47307,215.5v-71h179.05386v71z" fill="#ffffff" stroke-width="0"/><text transform="translate(185.75252,190.14288) scale(0.84524,0.84524)" font-size="40" xml:space="preserve" fill="#000000" fill-rule="nonzero" stroke="none" stroke-width="1" stroke-linecap="butt" stroke-linejoin="miter" stroke-miterlimit="10" stroke-dasharray="" stroke-dashoffset="0" font-family="Sans Serif" font-weight="normal" text-anchor="start" style="mix-blend-mode: normal"><tspan x="0" dy="0">Classic</tspan></text><path d="M340.5,135.00161c0,-1.24696 1.01086,-2.25782 2.25782,-2.25782c1.24696,0 2.25782,1.01086 2.25782,2.25782c0,1.24696 -1.01086,2.25782 -2.25782,2.25782c-1.24696,0 -2.25782,-1.01086 -2.25782,-2.25782z" fill="#000000" stroke-width="0.5"/><text transform="translate(350.88598,141.32351) scale(0.45156,0.45156)" font-size="40" xml:space="preserve" fill="#000000" fill-rule="nonzero" stroke="none" stroke-width="1" stroke-linecap="butt" stroke-linejoin="miter" stroke-miterlimit="10" stroke-dasharray="" stroke-dashoffset="0" font-family="Sans Serif" font-weight="normal" text-anchor="start" style="mix-blend-mode: normal"><tspan x="0" dy="0">Classic shooty doot</tspan><tspan x="0" dy="46.15px">gameplay!</tspan></text><path d="M340.5,188.84155c0,-1.24696 1.01086,-2.25782 2.25782,-2.25782c1.24696,0 2.25782,1.01086 2.25782,2.25782c0,1.24696 -1.01086,2.25782 -2.25782,2.25782c-1.24696,0 -2.25782,-1.01086 -2.25782,-2.25782z" fill="#000000" stroke-width="0.5"/><text transform="translate(350.88598,195.16345) scale(0.45156,0.45156)" font-size="40" xml:space="preserve" fill="#000000" fill-rule="nonzero" stroke="none" stroke-width="1" stroke-linecap="butt" stroke-linejoin="miter" stroke-miterlimit="10" stroke-dasharray="" stroke-dashoffset="0" font-family="Sans Serif" font-weight="normal" text-anchor="start" style="mix-blend-mode: normal"><tspan x="0" dy="0">Red has a knife, blue</tspan><tspan x="0" dy="46.15px">has a gun. Most frags</tspan><tspan x="0" dy="46.15px">by the end of the </tspan><tspan x="0" dy="46.15px">match wins. Simple.</tspan></text></g></g></svg>