<svg version="1.1" xmlns="http://www.w3.org/2000/svg" xmlns:xlink="http://www.w3.org/1999/xlink" width="614.50536" height="423.68244" viewBox="0,0,614.50536,423.68244"><g transform="translate(4.48949,58.50225)"><g data-paper-data="{&quot;isPaintingLayer&quot;:true}" fill-rule="nonzero" stroke-linejoin="miter" stroke-miterlimit="10" stroke-dasharray="" stroke-dashoffset="0" style="mix-blend-mode: normal"><path d="M0.51051,360.18019v-360.36036h478.97898v360.36036z" fill="none" stroke="#000000" stroke-width="10" stroke-linecap="butt"/><path d="M599.5,-35.49999c1.36284,0.0416 2.92598,-0.47466 4.08297,0.24674c6.68318,4.16709 6.43745,12.53827 6.41702,19.24916c-0.0085,2.79202 0.29081,4.75099 -1.37337,7.31842c-3.90978,6.03185 -11.64051,6.6819 -16.40859,11.50181c-1.81474,1.83447 -3.12946,4.12319 -4.95027,5.95163l-1,1c0,0 -0.08115,0.08115 -0.22608,0.1913c-1.91757,5.05809 -4.63165,9.79517 -8.35135,13.9648c-4.2982,4.81811 -11.87257,10.79514 -19.025,8.43269c-1.7912,-0.59163 -3.29388,-2.00998 -4.44127,-3.50729c-1.18887,-1.55144 -1.76142,-3.5072 -2.35984,-5.36791c-0.53882,-1.6754 -0.70203,-3.44919 -1.0318,-5.17793c-0.31832,-1.6687 -0.65686,-3.32248 -0.95522,-4.9772c-1.25469,4.91097 -2.93696,9.66262 -5.79697,13.57672c-1.19888,1.64074 -2.89899,2.84838 -4.34849,4.27256c-3.03686,0.80495 -6.19293,1.45314 -9.33195,1.32249c-6.94813,-0.28919 -15.70962,-1.44934 -18.5639,-9.0388c-1.74923,-4.65117 -0.83836,-10.99232 -0.82522,-15.85448c0.0119,-4.40439 -0.3273,-9.0765 -0.05823,-13.5228c-6.14298,-2.62449 -5.02116,-9.55148 -4.95215,-15.12023c0.08206,-6.62183 1.33956,-11.75519 3.59266,-17.97608c0.67601,-1.86647 1.22957,-3.51887 1.96162,-5.07849c-0.81384,0.13789 -1.62974,0.30935 -2.44823,0.51825c0,0 -2.42536,0.60634 -3.0317,-1.81902c-0.60634,-2.42536 1.81902,-3.0317 1.81902,-3.0317c2.54021,-0.62365 5.0488,-0.94332 7.54009,-1.04297c2.20582,-2.07821 4.29425,-2.93135 7.00394,-4.2956c0.62069,-0.31035 9.11993,-4.58232 9.48792,-4.66919c0.36208,-0.08548 9.88573,-0.06813 10.57438,-0.06688c5.18437,0.00942 8.45287,1.02904 13.45905,2.04251c2.89229,0.58552 5.26309,0.21587 8.26541,1.06476c3.13279,0.88578 6.02946,2.55728 8.73732,4.36462c2.08579,1.39215 3.98938,4.66338 5.42686,6.3901c2.42361,2.91127 3.76955,6.08744 6.08188,9.09947c0.00986,0.01285 0.01975,0.02569 0.02965,0.03853c4.99099,0 10.01071,-0.1523 14.99984,0zM517.38197,-11.23606l2.32746,-1.13564c2.02166,-0.65638 3.79004,-1.92553 5.69219,-2.87408c4.07456,-2.03186 8.61808,-3.3473 12.76632,-5.30361c3.32677,-1.56391 6.26818,-3.17877 9.93161,-3.91832c0.78284,-0.15803 1.63642,0.44872 2.38901,0.18146c1.81633,-0.64502 2.11789,-3.30963 2.55656,-5.18651c1.38818,-5.93947 -2.73226,-7.76514 -7.29917,-9.9098c-4.3661,-2.05035 -9.18339,-2.48513 -13.87196,-3.37215c-4.77713,-0.90378 -9.47188,-1.76134 -14.19099,-1.80245c-1.72991,2.15405 -2.44838,4.61449 -3.38546,7.23598c-1.72158,4.81611 -3.07798,8.58276 -3.21592,13.69876c-0.09026,3.34778 -0.40986,6.88849 -0.11389,10.22197c0.06839,0.77023 0.22309,1.46354 0.59454,1.99867c1.22387,-8.2999 3.52276,-16.50185 4.45303,-24.87429c0,0 0.27608,-2.48471 2.76079,-2.20863c2.48471,0.27608 2.20863,2.76079 2.20863,2.76079c-0.94317,8.48849 -3.2991,16.80796 -4.50554,25.22463c0.00164,-0.00006 0.00327,-0.00012 0.00491,-0.00017c0.40682,-0.49107 0.89789,-0.73661 0.89789,-0.73661z" fill="#9966ff" stroke="none" stroke-width="0.5" stroke-linecap="butt"/><path d="M177.93468,284.76274v-141.73783h124.13065v141.73783" fill="none" stroke="#000000" stroke-width="10" stroke-linecap="round"/><path d="M82.41571,285.6431l0,-219.20944h315.16859v220.0898" fill="none" stroke="#000000" stroke-width="10" stroke-linecap="round"/></g></g></svg>