<svg version="1.1" xmlns="http://www.w3.org/2000/svg" xmlns:xlink="http://www.w3.org/1999/xlink" width="68.40568" height="55.48436" viewBox="0,0,68.40568,55.48436"><g transform="translate(-288.69113,-148.33266)"><g data-paper-data="{&quot;isPaintingLayer&quot;:true}" fill="#3cf300" fill-rule="nonzero" stroke="none" stroke-width="0.59874" stroke-linecap="butt" stroke-linejoin="miter" stroke-miterlimit="10" stroke-dasharray="" stroke-dashoffset="0" style="mix-blend-mode: normal"><path d="M355.0858,160.1138l-41.4427,41.6697c-2.2172,2.2297 -5.5767,2.6248 -8.2051,1.1902c-0.115,-0.0616 -0.2258,-0.1311 -0.3383,-0.1987c-0.0581,-0.0366 -0.1162,-0.0695 -0.1731,-0.1066c-0.4298,-0.2796 -0.8382,-0.6065 -1.21,-0.9915l-13.086,-13.5476c-2.6506,-2.7446 -2.5752,-7.1184 0.17,-9.7696c2.7435,-2.65 7.1166,-2.574 9.7678,0.1706l8.2357,8.5254l36.487,-36.6858c2.6907,-2.7057 7.0645,-2.7177 9.7684,-0.0275c2.7063,2.6913 2.7177,7.0651 0.0263,9.7714z"/></g></g></svg>