<svg version="1.1" xmlns="http://www.w3.org/2000/svg" xmlns:xlink="http://www.w3.org/1999/xlink" width="8.37842" height="4.99665" viewBox="0,0,8.37842,4.99665"><g transform="translate(-315.6621,-177.63071)"><g data-paper-data="{&quot;isPaintingLayer&quot;:true}" fill="#000000" fill-rule="nonzero" stroke="none" stroke-width="0" stroke-linecap="butt" stroke-linejoin="miter" stroke-miterlimit="10" stroke-dasharray="" stroke-dashoffset="0" style="mix-blend-mode: normal"><path d=""/><path d="M322.51014,180.32461c-0.87473,0.15822 -1.5911,0.77155 -1.89504,1.58592c-0.04726,0.02301 -0.09369,0.04747 -0.13923,0.07331c-0.4396,0.10968 -0.83313,0.33572 -1.146,0.64352c-0.45801,-0.51693 -1.12686,-0.84276 -1.87182,-0.84276c-0.3837,0 -0.74722,0.08644 -1.07213,0.24092c-0.22098,-0.1352 -0.46459,-0.23704 -0.72382,-0.29851c1.30704,-2.02533 3.36358,-3.52151 5.77737,-4.0963c0.74565,0.81334 1.62412,1.50294 2.60104,2.03441c-0.58932,0.03899 -1.12282,0.28219 -1.53038,0.65949z"/></g></g></svg>